<svg width="364" height="324" viewBox="0 0 364 324" fill="none" xmlns="http://www.w3.org/2000/svg">
<path d="M224.392 99.9808C224.392 100.332 224.343 100.596 224.245 100.772C224.148 100.941 224.008 101.026 223.825 101.026H212.712C212.328 101.026 212.136 100.677 212.136 99.9808V99.3753C212.136 99.0172 212.185 98.7568 212.282 98.594C212.38 98.4248 212.523 98.3401 212.712 98.3401H223.825C224.203 98.3401 224.392 98.6852 224.392 99.3753V99.9808ZM224.372 92.971C224.372 93.6676 224.19 94.0159 223.825 94.0159H212.878C212.637 94.0159 212.465 93.9606 212.36 93.8499C212.25 93.7392 212.194 93.5634 212.194 93.3226V89.6702C212.194 88.5895 212.458 87.6325 212.985 86.7991C213.513 85.9658 214.515 85.5491 215.993 85.5491C217.009 85.5491 217.8 85.79 218.366 86.2718C218.926 86.7535 219.304 87.2972 219.499 87.9026C219.694 88.5016 219.792 89.0354 219.792 89.5042V91.3401H223.825C224.19 91.3401 224.372 91.6884 224.372 92.3851V92.971ZM217.497 89.7972C217.497 89.3805 217.387 89.0257 217.165 88.7327C216.944 88.4332 216.553 88.2835 215.993 88.2835C215.427 88.2835 215.03 88.4332 214.802 88.7327C214.574 89.0322 214.46 89.387 214.46 89.7972V91.3401H217.497V89.7972ZM224.489 78.8519C224.489 79.6722 224.408 80.3948 224.245 81.0198C224.076 81.6383 223.871 82.1136 223.63 82.4456C223.389 82.7711 223.161 82.9339 222.946 82.9339C222.777 82.9339 222.569 82.872 222.321 82.7483C222.074 82.6181 221.862 82.4651 221.687 82.2894C221.504 82.1136 221.413 81.9671 221.413 81.8499C221.413 81.7783 221.475 81.6253 221.599 81.3909C221.781 81.0394 221.928 80.7073 222.038 80.3948C222.149 80.0758 222.204 79.7112 222.204 79.3011C222.204 78.8453 222.116 78.4612 221.941 78.1487C221.758 77.8297 221.443 77.6702 220.993 77.6702C220.733 77.6702 220.508 77.7516 220.319 77.9144C220.131 78.0771 219.971 78.2854 219.841 78.5394C219.711 78.7933 219.558 79.1383 219.382 79.5745L219.05 80.346C218.822 80.8147 218.571 81.2184 218.298 81.5569C218.025 81.889 217.663 82.1624 217.214 82.3772C216.765 82.5856 216.215 82.6897 215.564 82.6897C214.769 82.6897 214.109 82.4944 213.581 82.1038C213.054 81.7132 212.666 81.2054 212.419 80.5804C212.172 79.9554 212.048 79.2848 212.048 78.5687C212.048 77.9827 212.11 77.4521 212.234 76.9769C212.351 76.5016 212.504 76.1305 212.693 75.8636C212.881 75.5901 213.07 75.4534 213.259 75.4534C213.415 75.4534 213.617 75.5055 213.864 75.6097C214.105 75.7073 214.317 75.831 214.499 75.9808C214.681 76.1305 214.773 76.2705 214.773 76.4007C214.773 76.4593 214.74 76.5634 214.675 76.7132C214.577 76.9541 214.499 77.1982 214.441 77.4456C214.375 77.6865 214.343 77.9827 214.343 78.3343C214.343 78.9397 214.441 79.3597 214.636 79.594C214.825 79.8284 215.049 79.9456 215.31 79.9456C215.609 79.9456 215.86 79.8675 216.062 79.7112C216.263 79.5485 216.429 79.3466 216.56 79.1058C216.69 78.8584 216.84 78.5166 217.009 78.0804C217.289 77.4228 217.556 76.8857 217.81 76.469C218.057 76.0524 218.415 75.6943 218.884 75.3948C219.353 75.0888 219.952 74.9358 220.681 74.9358C221.573 74.9358 222.305 75.1246 222.878 75.5022C223.444 75.8733 223.855 76.3551 224.109 76.9476C224.362 77.5335 224.489 78.1683 224.489 78.8519Z" fill="#920909"/>
<rect x="3" y="3" width="318" height="318" rx="159" stroke="url(#paint0_linear_435_12)" stroke-width="6"/>
<path d="M33.8584 188.823C31.9428 188.823 30.9849 188.322 30.9849 187.32V157.215C30.9849 156.552 31.1371 156.078 31.4415 155.791C31.7458 155.487 32.2292 155.335 32.8916 155.335H42.9356C45.9076 155.335 48.5394 156.06 50.8311 157.51C53.1228 158.96 54.2686 161.717 54.2686 165.781C54.2686 168.574 53.6062 170.75 52.2813 172.307C50.9564 173.847 49.4615 174.885 47.7964 175.423C46.1493 175.96 44.6812 176.228 43.3921 176.228H38.3433V187.32C38.3433 188.322 37.3855 188.823 35.4698 188.823H33.8584ZM42.5865 169.917C43.7323 169.917 44.7081 169.613 45.5137 169.004C46.3373 168.395 46.7491 167.321 46.7491 165.781C46.7491 164.224 46.3373 163.132 45.5137 162.505C44.6901 161.878 43.7144 161.565 42.5865 161.565H38.3433V169.917H42.5865ZM66.5899 188.823C64.6742 188.823 63.7164 188.322 63.7164 187.32V157.215C63.7164 156.552 63.8685 156.078 64.1729 155.791C64.4773 155.487 64.9607 155.335 65.6231 155.335H74.9419C82.8554 155.335 86.8121 158.316 86.8121 164.278C86.8121 166.086 86.3018 167.643 85.2813 168.95C84.2787 170.257 82.927 171.233 81.2261 171.878V172.066C81.8169 172.316 82.4346 172.853 83.0791 173.677C83.7416 174.501 84.2697 175.432 84.6636 176.47L88.8799 186.97C89.0232 187.4 89.0948 187.705 89.0948 187.884C89.0948 188.51 88.1459 188.823 86.2481 188.823H84.2876C82.6942 188.823 81.7722 188.492 81.5215 187.83L77.7349 178.511C77.3768 177.795 77.0277 177.24 76.6875 176.846C76.3653 176.452 75.9087 176.157 75.3179 175.96C74.7271 175.745 73.9304 175.637 72.9278 175.637H71.0748V187.32C71.0748 188.322 70.1169 188.823 68.2012 188.823H66.5899ZM75.5865 169.3C76.231 169.3 76.8397 169.121 77.4126 168.762C77.9856 168.386 78.4421 167.885 78.7823 167.259C79.1224 166.632 79.2925 165.943 79.2925 165.191C79.2925 164.081 78.9255 163.203 78.1915 162.559C77.4753 161.896 76.4996 161.565 75.2642 161.565H71.0748V169.3H75.5865ZM100.96 188.877C99.9927 188.877 99.2676 188.743 98.7842 188.474C98.3187 188.206 98.086 187.821 98.086 187.32V156.758C98.086 155.702 99.0438 155.174 100.96 155.174H102.625C103.609 155.174 104.325 155.308 104.773 155.576C105.238 155.845 105.471 156.239 105.471 156.758V187.32C105.471 188.358 104.522 188.877 102.625 188.877H100.96ZM120.236 188.823C118.321 188.823 117.363 188.322 117.363 187.32V156.758C117.363 156.239 117.596 155.854 118.061 155.603C118.527 155.335 119.252 155.2 120.236 155.2H122.761C124.283 155.2 125.276 155.639 125.742 156.516L133.772 170.777L134.174 171.475L134.577 170.642L142.661 156.516C143.144 155.639 144.147 155.2 145.669 155.2H148.166C150.082 155.2 151.04 155.72 151.04 156.758V187.32C151.04 188.322 150.082 188.823 148.166 188.823H146.77C144.854 188.823 143.896 188.322 143.896 187.32V167.527L143.708 167.473L136.779 179.854C136.368 180.462 135.732 180.767 134.873 180.767H133.503C133.055 180.767 132.679 180.695 132.375 180.552C132.071 180.391 131.811 180.158 131.596 179.854L124.641 167.473L124.453 167.527V187.32C124.453 188.322 123.504 188.823 121.606 188.823H120.236ZM164.999 188.743C164.337 188.743 163.853 188.591 163.549 188.286C163.245 187.982 163.092 187.499 163.092 186.836V157.215C163.092 156.552 163.245 156.078 163.549 155.791C163.853 155.487 164.337 155.335 164.999 155.335H182.482C182.983 155.335 183.341 155.523 183.556 155.899C183.789 156.275 183.905 156.883 183.905 157.725V159.175C183.905 160.017 183.789 160.625 183.556 161.001C183.341 161.377 182.983 161.565 182.482 161.565H170.451V168.494H181.193C181.694 168.494 182.052 168.682 182.267 169.058C182.5 169.434 182.616 170.043 182.616 170.884V172.361C182.616 173.203 182.5 173.811 182.267 174.187C182.052 174.563 181.694 174.751 181.193 174.751H170.451V182.486H182.509C183.01 182.486 183.368 182.674 183.583 183.05C183.816 183.426 183.932 184.025 183.932 184.849V186.353C183.932 187.194 183.816 187.803 183.583 188.179C183.368 188.555 183.01 188.743 182.509 188.743H164.999Z" fill="#920909"/>
<path d="M33.2421 148.743C33.151 148.743 33.0566 148.635 32.9589 148.421C32.8678 148.199 32.8222 148.001 32.8222 147.825C32.8222 147.734 32.8385 147.662 32.871 147.61L39.9902 137.913H33.7402C33.6165 137.913 33.5253 137.867 33.4667 137.776C33.4146 137.678 33.3886 137.525 33.3886 137.317V137.18C33.3886 136.972 33.4146 136.822 33.4667 136.731C33.5253 136.64 33.6165 136.594 33.7402 136.594H41.6894C41.7284 136.594 41.7773 136.647 41.8359 136.751C41.901 136.855 41.9563 136.979 42.0019 137.122C42.0474 137.265 42.0702 137.395 42.0702 137.512C42.0702 137.597 42.054 137.665 42.0214 137.718L34.9023 147.425H41.6894C41.8131 147.425 41.901 147.47 41.953 147.561C42.0116 147.652 42.0409 147.802 42.0409 148.01V148.147C42.0409 148.356 42.0116 148.509 41.953 148.606C41.901 148.697 41.8131 148.743 41.6894 148.743H33.2421ZM47.0683 137.473C46.606 137.473 46.3749 137.346 46.3749 137.093V136.067C46.3749 135.813 46.606 135.686 47.0683 135.686H47.2734C47.7421 135.686 47.9765 135.813 47.9765 136.067V137.093C47.9765 137.346 47.7421 137.473 47.2734 137.473H47.0683ZM47.1366 148.772C46.6744 148.772 46.4433 148.645 46.4433 148.391V140.012C46.4433 139.759 46.6744 139.632 47.1366 139.632H47.205C47.6738 139.632 47.9081 139.759 47.9081 140.012V148.391C47.9081 148.645 47.6738 148.772 47.205 148.772H47.1366ZM53.7363 148.772C53.4889 148.772 53.3098 148.743 53.1991 148.684C53.0885 148.619 53.0331 148.522 53.0331 148.391V142.298C53.0331 141.542 52.9973 140.999 52.9257 140.667C52.8541 140.328 52.8183 140.143 52.8183 140.11C52.8183 139.967 52.9257 139.866 53.1405 139.807C53.3619 139.742 53.5702 139.71 53.7655 139.71C53.9218 139.71 54.039 139.794 54.1171 139.964C54.1952 140.126 54.2636 140.358 54.3222 140.657L54.371 140.862C54.9895 139.996 55.6601 139.563 56.3827 139.563C56.7148 139.563 56.9654 139.625 57.1347 139.749C57.304 139.866 57.3886 140.025 57.3886 140.227C57.3886 140.423 57.3528 140.631 57.2812 140.852C57.2161 141.067 57.1379 141.175 57.0468 141.175C57.0012 141.175 56.9198 141.155 56.8027 141.116C56.6985 141.07 56.5943 141.038 56.4902 141.018C56.386 140.992 56.2525 140.979 56.0898 140.979C55.8228 140.979 55.5689 141.057 55.328 141.214C55.0937 141.37 54.8951 141.542 54.7323 141.731C54.5696 141.92 54.4882 142.024 54.4882 142.044V148.391C54.4882 148.522 54.4329 148.619 54.3222 148.684C54.2115 148.743 54.039 148.772 53.8046 148.772H53.7363ZM66.4003 148.841C64.4993 148.841 63.093 148.339 62.1816 147.337C61.2701 146.334 60.8144 144.775 60.8144 142.659C60.8144 138.538 62.6861 136.477 66.4296 136.477C66.9765 136.477 67.5071 136.536 68.0214 136.653C68.5357 136.764 68.9524 136.904 69.2714 137.073C69.5904 137.242 69.7499 137.405 69.7499 137.561C69.7499 137.659 69.7141 137.789 69.6425 137.952C69.5774 138.115 69.4993 138.258 69.4081 138.382C69.317 138.505 69.2356 138.567 69.164 138.567C69.1314 138.567 69.0403 138.525 68.8905 138.44C68.552 138.258 68.1972 138.105 67.8261 137.981C67.455 137.858 67.0025 137.796 66.4687 137.796C65.0689 137.796 64.037 138.186 63.373 138.968C62.7154 139.742 62.3866 140.979 62.3866 142.678C62.3866 144.339 62.7122 145.563 63.3632 146.35C64.0208 147.132 65.0331 147.522 66.4003 147.522C66.9732 147.522 67.4648 147.454 67.8749 147.317C68.2851 147.18 68.679 147.011 69.0566 146.809C69.2389 146.712 69.3495 146.663 69.3886 146.663C69.4602 146.663 69.5416 146.725 69.6327 146.848C69.7304 146.972 69.815 147.112 69.8866 147.268C69.9583 147.418 69.9941 147.525 69.9941 147.591C69.9941 147.753 69.828 147.936 69.496 148.137C69.1705 148.333 68.731 148.499 68.1777 148.635C67.6308 148.772 67.0383 148.841 66.4003 148.841ZM73.537 148.772C73.2766 148.772 73.0878 148.749 72.9706 148.704C72.8534 148.652 72.7948 148.577 72.7948 148.479C72.7948 148.434 72.8111 148.356 72.8437 148.245L76.955 136.829C77.0201 136.64 77.2512 136.546 77.6484 136.546H78.1562C78.5533 136.546 78.7844 136.64 78.8495 136.829L82.9609 148.255C82.9934 148.326 83.0097 148.401 83.0097 148.479C83.0097 148.675 82.7655 148.772 82.2773 148.772H82.1308C81.7271 148.772 81.4928 148.681 81.4277 148.499L80.412 145.647H75.3144L74.3183 148.499C74.2597 148.681 74.0286 148.772 73.6249 148.772H73.537ZM79.9433 144.329L78.1269 139.163C78.0748 139.02 78.0325 138.857 77.9999 138.675C77.9674 138.492 77.9381 138.316 77.912 138.147H77.873C77.7948 138.583 77.707 138.922 77.6093 139.163L75.7929 144.329H79.9433ZM87.4316 148.743C87.2493 148.743 87.1158 148.701 87.0312 148.616C86.9465 148.531 86.9042 148.401 86.9042 148.225V137.112C86.9042 136.93 86.9465 136.8 87.0312 136.721C87.1158 136.637 87.2493 136.594 87.4316 136.594H90.9374C92.565 136.594 93.8671 137.076 94.8437 138.04C95.8202 139.003 96.3085 140.543 96.3085 142.659C96.3085 144.788 95.8202 146.334 94.8437 147.298C93.8671 148.261 92.565 148.743 90.9374 148.743H87.4316ZM90.8202 147.425C91.9921 147.425 92.9361 147.044 93.6523 146.282C94.3684 145.514 94.7265 144.306 94.7265 142.659C94.7265 141.552 94.5572 140.647 94.2187 139.944C93.8801 139.234 93.4179 138.72 92.832 138.401C92.246 138.076 91.5754 137.913 90.8202 137.913H88.4374V147.425H90.8202Z" fill="white"/>
<path d="M238.661 100.566C234.853 100.566 232.012 99.5489 230.141 97.5144C228.269 95.4636 227.333 92.6235 227.333 88.9939C227.333 84.9086 228.269 81.9138 230.141 80.0095C232.012 78.1052 234.592 77.1531 237.88 77.1531C240.061 77.1531 241.843 77.6495 243.227 78.6423C244.626 79.6352 245.644 80.9698 246.278 82.6462C246.929 84.3227 247.255 86.2188 247.255 88.3347C247.255 88.5789 247.108 88.9044 246.815 89.3113C246.539 89.7182 246.221 90.0844 245.863 90.4099C245.505 90.7354 245.229 90.8982 245.033 90.8982H233.974C234.12 92.5583 234.608 93.7384 235.439 94.4382C236.285 95.1218 237.457 95.4636 238.954 95.4636C239.768 95.4636 240.5 95.3741 241.151 95.1951C241.819 94.9998 242.527 94.7475 243.275 94.4382C243.731 94.2266 244.04 94.1208 244.203 94.1208C244.496 94.1208 244.814 94.3324 245.155 94.7556C245.513 95.1625 245.815 95.6345 246.059 96.1716C246.319 96.7087 246.449 97.1238 246.449 97.4167C246.449 98.0841 245.994 98.6537 245.082 99.1257C244.187 99.5977 243.121 99.9558 241.884 100.2C240.663 100.444 239.589 100.566 238.661 100.566ZM241.005 86.6257C241.005 85.2911 240.745 84.225 240.224 83.4275C239.703 82.6137 238.922 82.2068 237.88 82.2068C235.732 82.2068 234.429 83.6798 233.974 86.6257H241.005ZM257.504 100.273C255.762 100.273 254.892 99.8175 254.892 98.906V94.9021C254.892 93.9744 255.762 93.5105 257.504 93.5105H258.896C259.791 93.5105 260.442 93.6326 260.849 93.8767C261.272 94.1046 261.483 94.4464 261.483 94.9021V98.906C261.483 99.8175 260.621 100.273 258.896 100.273H257.504ZM295.194 77.1531C297.359 77.1531 298.954 77.7227 299.98 78.8621C301.021 80.0014 301.542 81.7673 301.542 84.1599V98.906C301.542 99.8175 300.663 100.273 298.905 100.273H297.709C295.984 100.273 295.121 99.8175 295.121 98.906V85.1365C295.121 84.2576 294.918 83.5903 294.511 83.1345C294.12 82.6788 293.461 82.4509 292.533 82.4509C291.719 82.4509 291.028 82.7032 290.458 83.2078C289.905 83.696 289.457 84.2657 289.115 84.9167V98.906C289.115 99.8175 288.245 100.273 286.503 100.273H285.282C283.557 100.273 282.694 99.8175 282.694 98.906V85.1365C282.694 84.2576 282.491 83.5903 282.084 83.1345C281.693 82.6788 281.042 82.4509 280.131 82.4509C279.35 82.4509 278.658 82.7113 278.056 83.2322C277.47 83.753 277.022 84.3308 276.713 84.9656V98.906C276.713 99.8175 275.834 100.273 274.076 100.273H272.88C271.155 100.273 270.292 99.8175 270.292 98.906V85.1365C270.292 83.0531 270.154 81.3197 269.877 79.9363C269.796 79.4968 269.755 79.1876 269.755 79.0085C269.755 78.683 270.056 78.4226 270.658 78.2273C271.277 78.0157 271.968 77.8611 272.733 77.7634C273.515 77.6658 274.141 77.6169 274.613 77.6169C275.118 77.6169 275.468 77.8041 275.663 78.1785C275.875 78.5528 276.062 79.0981 276.225 79.8142L276.371 80.449C277.055 79.5212 277.966 78.74 279.106 78.1052C280.245 77.4705 281.474 77.1531 282.792 77.1531C284.289 77.1531 285.502 77.4216 286.43 77.9587C287.374 78.4958 288.065 79.3259 288.505 80.449C289.237 79.5212 290.198 78.74 291.386 78.1052C292.574 77.4705 293.843 77.1531 295.194 77.1531ZM317.65 100.566C315.437 100.566 313.809 99.9884 312.768 98.8328C311.742 97.6609 311.23 96.1147 311.23 94.1941C311.23 92.7455 311.531 91.4434 312.133 90.2878C312.735 89.116 313.956 88.1313 315.795 87.3337C317.634 86.5362 320.263 86.1375 323.681 86.1375V84.697C323.681 83.8507 323.412 83.224 322.875 82.8171C322.338 82.4102 321.483 82.2068 320.312 82.2068C319.335 82.2068 318.497 82.3126 317.797 82.5242C317.097 82.7195 316.34 82.988 315.526 83.3298C315.103 83.5251 314.843 83.6228 314.745 83.6228C314.452 83.6228 314.127 83.4031 313.769 82.9636C313.427 82.5242 313.126 82.0196 312.865 81.45C312.605 80.8803 312.475 80.449 312.475 80.156C312.475 79.6514 312.833 79.1713 313.549 78.7156C314.281 78.2436 315.282 77.8692 316.552 77.5925C317.821 77.2996 319.229 77.1531 320.775 77.1531C324.031 77.1531 326.399 77.8041 327.88 79.1062C329.361 80.392 330.102 82.158 330.102 84.4041V92.5339C330.102 93.8848 330.134 94.9347 330.199 95.6833C330.281 96.432 330.386 97.1726 330.517 97.905C330.598 98.3445 330.639 98.6537 330.639 98.8328C330.639 99.1583 330.329 99.4268 329.711 99.6384C329.109 99.85 328.417 100.005 327.636 100.102C326.855 100.2 326.228 100.249 325.756 100.249C325.251 100.249 324.885 100.037 324.657 99.614C324.446 99.1746 324.275 98.5805 324.145 97.8318C324.128 97.7341 324.112 97.6365 324.096 97.5388C324.079 97.4412 324.055 97.3435 324.023 97.2458C323.86 97.5551 323.51 97.9701 322.973 98.491C322.452 99.0118 321.736 99.4919 320.824 99.9314C319.913 100.355 318.855 100.566 317.65 100.566ZM319.774 95.4636C320.588 95.4636 321.353 95.2113 322.069 94.7068C322.786 94.186 323.323 93.5268 323.681 92.7292V90.3367C319.628 90.3367 317.602 91.4028 317.602 93.5349C317.602 94.1046 317.789 94.5684 318.163 94.9265C318.554 95.2846 319.091 95.4636 319.774 95.4636ZM341.034 100.273C339.211 100.273 338.3 100.013 338.3 99.4919C338.3 99.378 338.349 99.2315 338.446 99.0525C338.544 98.8572 338.658 98.6456 338.788 98.4177L345.331 88.7009L339.154 79.3259C338.845 78.8051 338.69 78.4307 338.69 78.2029C338.69 77.682 339.602 77.4216 341.425 77.4216H342.816C343.581 77.4216 344.159 77.4705 344.55 77.5681C344.94 77.6658 345.242 77.8936 345.453 78.2517L348.114 82.5242L348.749 83.574L349.506 82.4509L352.191 78.2517C352.403 77.8936 352.704 77.6658 353.095 77.5681C353.485 77.4705 354.063 77.4216 354.828 77.4216H356.098C357.921 77.4216 358.832 77.682 358.832 78.2029C358.832 78.3982 358.677 78.7563 358.368 79.2771L352.021 88.6521L358.441 98.3689C358.751 98.8572 358.905 99.2315 358.905 99.4919C358.905 100.013 358.002 100.273 356.195 100.273H354.779C354.031 100.273 353.461 100.224 353.07 100.127C352.68 100.029 352.371 99.8012 352.143 99.4431L349.164 94.6824C349.099 94.5684 349.001 94.422 348.871 94.2429C348.757 94.0639 348.66 93.9093 348.578 93.7791C348.513 93.8767 348.424 94.0232 348.31 94.2185C348.196 94.3975 348.106 94.5522 348.041 94.6824L344.989 99.4431C344.761 99.8012 344.452 100.029 344.062 100.127C343.671 100.224 343.093 100.273 342.328 100.273H341.034Z" fill="white"/>
<defs>
<linearGradient id="paint0_linear_435_12" x1="0" y1="0" x2="324" y2="324" gradientUnits="userSpaceOnUse">
<stop stop-color="#FF0000"/>
<stop offset="0.836201" stop-color="#501B1B" stop-opacity="0"/>
</linearGradient>
</defs>
</svg>
